PathFileType	4	(X/Y/Z)	C:\Github\FootballMatch-and-Movement-Analysis\output\test Exam_2026-03-06_135002_tvc2_Sports2D\test Exam_2026-03-06_135002_tvc2_Sports2D_m_person00.trc
DataRate	CameraRate	NumFrames	NumMarkers	Units	OrigDataRate	OrigDataStartFrame	OrigNumFrames
30.0	30.0	9	22	m	30.0	129	516
Frame#	Time	Hip			RHip			RKnee			RAnkle			RBigToe			RSmallToe			RHeel			LHip			LKnee			LAnkle			LBigToe			LSmallToe			LHeel			Neck			Head			Nose			RShoulder			RElbow			RWrist			LShoulder			LElbow			LWrist			
		X1	Y1	Z1	X2	Y2	Z2	X3	Y3	Z3	X4	Y4	Z4	X5	Y5	Z5	X6	Y6	Z6	X7	Y7	Z7	X8	Y8	Z8	X9	Y9	Z9	X10	Y10	Z10	X11	Y11	Z11	X12	Y12	Z12	X13	Y13	Z13	X14	Y14	Z14	X15	Y15	Z15	X16	Y16	Z16	X17	Y17	Z17	X18	Y18	Z18	X19	Y19	Z19	X20	Y20	Z20	X21	Y21	Z21	X22	Y22	Z22
129	4.3083495145631066	0.8106694565663982	0.8582357089983724	0.0301	0.722813718332959	0.84292075165595	0.0301	0.7181731518738619	0.4886981818918063	0.129	0.7211367801571864	0.1555107093994418	0.023	0.6965068101138685	0.037142931579581845	0.2179	0.6520327778300621	0.05190058821677849	0.1804	0.7338241755877426	0.10826472273384702	-0.0119	0.913634857535058	0.8429942479053606	0.0301	0.9469254824128854	0.4903300455414654	0.129	0.9798991261087733	0.16283428507461098	0.023	0.9981981095583876	0.039768210048753395	0.2179	1.0440209653281485	0.05803402122442867	0.1804	0.9637045299292457	0.12811108216543102	-0.0119	0.8084816173607337	1.4594209718621314	0.0008	0.7861681604622953	1.7002069161441398	0.0655	0.7771179596797293	1.5621930375807265	0.1076	0.6517602775011919	1.35522324978081	-0.01275	0.4982873900850843	1.2138459807650177	0.0702	0.5217944883398903	1.0915476414455931	0.1076	1.0010152771323144	1.365311232773029	-0.01275	1.1596200330980224	1.1791014654038199	0.0702	1.0475893465206099	0.9857200455624735	0.1076
130	4.341747572815534	0.8041332064529726	0.8594285471074581	0.0301	0.7147401079195533	0.8427853354495786	0.0301	0.7141438291851874	0.48297184998139076	0.129	0.7197830756265327	0.14961142276869796	0.023	0.6967924187452235	0.028390002955105218	0.2179	0.6516831116534554	0.04237291051036998	0.1804	0.736361873615924	0.10671030529139294	-0.0119	0.9052862845259522	0.8417900415622228	0.0301	0.9392156210440598	0.49391344684740157	0.129	0.9802218115148672	0.16783768276025632	0.023	0.9956755599121897	0.040079656215801084	0.2179	1.0447703737604002	0.05901162518544594	0.1804	0.9659883609220435	0.13398666291562358	-0.0119	0.8006178365459304	1.4589074112186742	0.0008	0.777326876519635	1.7002434381257914	0.0655	0.7687986057172742	1.5626934366850613	0.1076	0.6430528170495939	1.3547048236658006	-0.01275	0.48993887060105973	1.2126640055855138	0.0702	0.5333775220675887	1.0667160856512825	0.1076	0.9917249892670376	1.3670621137100847	-0.01275	1.152183877079976	1.1778969695355699	0.0702	1.0381415355525287	0.9862474087018235	0.1076
131	4.375145631067961	0.7979073416721105	0.8616672655732244	0.0301	0.706670380284086	0.8435016716043505	0.0301	0.708766415747679	0.48000335628531304	0.129	0.7176439657795405	0.14801067191126474	0.023	0.6969277703678772	0.025123602662686345	0.2179	0.6515718950043332	0.03915032754143696	0.1804	0.7369060030578971	0.10441989700419989	-0.0119	0.8981189823282731	0.8419972693185617	0.0301	0.9306617505484774	0.4985821102082654	0.129	0.9788375186418258	0.17697930323394115	0.023	0.9910885173963748	0.04197272439114786	0.2179	1.0450112087298844	0.06098265536767709	0.1804	0.9686919661380289	0.14318941439891297	-0.0119	0.793360084957872	1.4583003020230623	0.0008	0.7689344993661213	1.701729957973172	0.0655	0.7621024920359001	1.5628752253070286	0.1076	0.6349336219311998	1.3542641855929474	-0.01275	0.48240243643982483	1.2103646032655622	0.0702	0.5452445220094952	1.0459165956667502	0.1076	0.9835065405550207	1.3683556881270207	-0.01275	1.1456796413794197	1.176016084872661	0.0702	1.0277169874680612	0.9864988130832967	0.1076
132	4.408543689320388	0.7911756552340642	0.8642906612907361	0.0301	0.6994390437496719	0.8447407083836935	0.0301	0.7038623245728918	0.4787542269955344	0.129	0.7147327728164705	0.14839712041537834	0.023	0.6958853803213358	0.026971733985846288	0.2179	0.6520321956340223	0.040706454485517456	0.1804	0.7358245773145382	0.10244332618871133	-0.0119	0.8916354004190455	0.8439360018904053	0.0301	0.9231964400180047	0.5021166135172273	0.129	0.9738046198589967	0.18657611840772265	0.023	0.9856959645656219	0.04633978445590072	0.2179	1.042363518945203	0.06494231782039035	0.1804	0.9651732056817866	0.15327595135426156	-0.0119	0.785945349201389	1.4574402193503895	0.0008	0.7617091216809864	1.7030013249866263	0.0655	0.7558814308777293	1.5630205585796924	0.1076	0.6267178642558191	1.354603147420102	-0.01275	0.47633387987231707	1.2061304615919741	0.0702	0.5543917717211371	1.0321504161837576	0.1076	0.9767690926778841	1.3687453568360346	-0.01275	1.138898833938116	1.1744259069882397	0.0702	1.0194425115749393	0.9874657071209498	0.1076
133	4.441941747572815	0.7851340244258491	0.8669977463262493	0.0301	0.6934127032515843	0.8459769468563385	0.0301	0.7008263083249886	0.47784591288933215	0.129	0.7119254631338496	0.1482414424184554	0.023	0.6947483430080879	0.029484641713870722	0.2179	0.6532182422206513	0.04145377897194098	0.1804	0.7345860494441899	0.10326172897277283	-0.0119	0.8854002975515186	0.8476105604726119	0.0301	0.9177917672668371	0.5041466491256156	0.129	0.9648746236022415	0.1915494395532881	0.023	0.9805025385024284	0.05028093704573915	0.2179	1.0356234030390514	0.06921929177685401	0.1804	0.9528789737538734	0.15995724582294893	-0.0119	0.7781161861068041	1.4570296660092017	0.0008	0.7555759111050908	1.7019866544061417	0.0655	0.7491754278469224	1.5635020770960995	0.1076	0.6178475170063189	1.3552624062612915	-0.01275	0.4725870510227916	1.2000684559436987	0.0702	0.5599616190292444	1.026526214794666	0.1076	0.9701200511478371	1.3686106981211101	-0.01275	1.13097850520075	1.1728569233989428	0.0702	1.014591688074707	0.9901338886404586	0.1076
134	4.475339805825243	0.781260531198982	0.8696287880618323	0.0301	0.6892117122585668	0.8463089406989148	0.0301	0.6987619708199204	0.4778968808097576	0.129	0.7098622777571979	0.14740284692520664	0.023	0.6941229912670995	0.029585463152611402	0.2179	0.654283320460927	0.03958920671441994	0.1804	0.7335355235403733	0.1056687495827329	-0.0119	0.8801814634580097	0.8507911642773893	0.0301	0.9134772922703396	0.5063280332629813	0.129	0.9539502472079606	0.18941674823056115	0.023	0.9751314946763503	0.0494977314375691	0.2179	1.0269869317589115	0.06904633622779521	0.1804	0.936881510618321	0.15737328194645647	-0.0119	0.7715069195464671	1.457059976783498	0.0008	0.7500151072050298	1.6996296460723157	0.0655	0.7428947918109151	1.564331551032382	0.1076	0.6094902925126204	1.3551254205746666	-0.01275	0.4703415951541446	1.1932454630854006	0.0702	0.5626192824666474	1.025678676947186	0.1076	0.963128479021904	1.368305304252551	-0.01275	1.1230168536832295	1.1716692800678168	0.0702	1.0110908822983316	0.9939381965481597	0.1076
135	4.50873786407767	0.778671037572305	0.8714245729731261	0.0301	0.6864546726387659	0.8457584917224823	0.0301	0.6958198376142907	0.4799091727937235	0.129	0.7079392290975826	0.14719401381542374	0.023	0.6938140935595788	0.028043402999871077	0.2179	0.6538768647909667	0.038179379990927596	0.1804	0.7320382988624192	0.10763034779031126	-0.0119	0.8768287906093073	0.8519648124989045	0.0301	0.9091115220147202	0.5099945469319219	0.129	0.9425543075938925	0.18075673343332335	0.023	0.9681923805351914	0.04192430146760492	0.2179	1.0187208185424668	0.060885382213226265	0.1804	0.9223730965891418	0.1439318167407906	-0.0119	0.766800327370388	1.4567091214118775	0.0008	0.7451506650098824	1.6978349031398625	0.0655	0.7385024824525046	1.5648525576815984	0.1076	0.6031349023466265	1.3539949453546847	-0.01275	0.4676783406275352	1.186725303573954	0.0702	0.5636537336960679	1.0245108415370379	0.1076	0.9568569316976249	1.3681147639788653	-0.01275	1.1158122776766541	1.1711857645218975	0.0702	1.006939180974193	0.9972313633539659	0.1076
136	4.542135922330097	0.7752655502234956	0.8720341769954738	0.0301	0.682510608018372	0.8462738023191588	0.0301	0.6911990896780823	0.4830827692963201	0.129	0.7059535119427425	0.14822174536555285	0.023	0.694504800762253	0.02793958238290108	0.2179	0.6512816481492315	0.03999381835965024	0.1804	0.7305481185908498	0.10884048212071731	-0.0119	0.8742965946919301	0.853853639017372	0.0301	0.903997554201201	0.5136659443480625	0.129	0.9316759672272501	0.1658922190458525	0.023	0.9585966532914254	0.027992898762530197	0.2179	1.0098379658720784	0.044641786522755744	0.1804	0.9107890303583542	0.12334922925308617	-0.0119	0.7623833038740703	1.4566697185555075	0.0008	0.7405818787845031	1.6968367267380977	0.0655	0.735314798792762	1.564690036940643	0.1076	0.5986896618873756	1.3528633615984647	-0.01275	0.46460233891660613	1.1815934556289354	0.0702	0.5634185373097321	1.0218548988805594	0.1076	0.9517244947856764	1.3684533811213953	-0.01275	1.1087030778730311	1.1706277207299067	0.0702	1.0017470074542514	0.9987497754184509	0.1076
137	4.575533980582525	0.7709799634578083	0.872157638412144	0.0301	0.6763499316252444	0.8486671573918857	0.0301	0.6860709353776722	0.4851153183067365	0.129	0.7050861421820659	0.1496136500874787	0.023	0.6951689314742527	0.02970243310090335	0.2179	0.6468382821659473	0.04290627079783466	0.1804	0.7308709015080463	0.10764864065754651	-0.0119	0.8709842361217295	0.8580601338936433	0.0301	0.8978709358764821	0.5143164552167071	0.129	0.9234966498786238	0.14478516426315502	0.023	0.9472878350925067	0.009069989156440623	0.2179	0.9996848462767398	0.022145961671391032	0.1804	0.9033450586944376	0.09870229481002112	-0.0119	0.757154245417476	1.4580327936222677	0.0008	0.7349325822445607	1.6964032788421368	0.0655	0.7314770302494222	1.5643373662388456	0.1076	0.5946918896178178	1.3525436152392882	-0.01275	0.4620144383242545	1.1781271964389337	0.0702	0.5610805063079354	1.019695994278184	0.1076	0.9469893381718844	1.3690335554140223	-0.01275	1.1017819514732279	1.1696174114565239	0.0702	0.9958030821814116	0.9984225835824881	0.1076
